<?xml version="1.0" encoding="UTF-8" standalone="no"?>
<svg
   xmlns:dc="http://purl.org/dc/elements/1.1/"
   xmlns:cc="http://creativecommons.org/ns#"
   xmlns:rdf="http://www.w3.org/1999/02/22-rdf-syntax-ns#"
   xmlns:svg="http://www.w3.org/2000/svg"
   xmlns="http://www.w3.org/2000/svg"
   xmlns:xlink="http://www.w3.org/1999/xlink"
   xmlns:sodipodi="http://sodipodi.sourceforge.net/DTD/sodipodi-0.dtd"
   xmlns:inkscape="http://www.inkscape.org/namespaces/inkscape"
   id="svg2"
   sodipodi:docname="globalwarming.svg"
   viewBox="0 0 512.65167 605.22705"
   version="1.1"
   inkscape:version="0.92.1 r15371"
   width="546.82843"
   height="645.5755">
  <defs
     id="defs7512">
    <linearGradient
       inkscape:collect="always"
       id="linearGradient8106">
      <stop
         style="stop-color:#630a0a;stop-opacity:1;"
         offset="0"
         id="stop8102" />
      <stop
         style="stop-color:#630a0a;stop-opacity:0;"
         offset="1"
         id="stop8104" />
    </linearGradient>
    <linearGradient
       inkscape:collect="always"
       id="linearGradient8073">
      <stop
         style="stop-color:#7b8d4c;stop-opacity:1;"
         offset="0"
         id="stop8069" />
      <stop
         style="stop-color:#7b8d4c;stop-opacity:0;"
         offset="1"
         id="stop8071" />
    </linearGradient>
    <linearGradient
       inkscape:collect="always"
       id="linearGradient8063">
      <stop
         style="stop-color:#405a74;stop-opacity:1;"
         offset="0"
         id="stop8059" />
      <stop
         style="stop-color:#405a74;stop-opacity:0;"
         offset="1"
         id="stop8061" />
    </linearGradient>
    <linearGradient
       inkscape:collect="always"
       xlink:href="#linearGradient8063"
       id="linearGradient8065"
       x1="0"
       y1="205.03125"
       x2="417.5625"
       y2="205.03125"
       gradientUnits="userSpaceOnUse"
       gradientTransform="translate(0,173.50446)" />
    <linearGradient
       inkscape:collect="always"
       xlink:href="#linearGradient8073"
       id="linearGradient8075"
       x1="21.413462"
       y1="185.84242"
       x2="395.61371"
       y2="185.84242"
       gradientUnits="userSpaceOnUse"
       gradientTransform="translate(0,173.50446)" />
    <style
       id="style8077"
       type="text/css">
    .fil0 {fill:black}
  </style>
    <linearGradient
       inkscape:collect="always"
       xlink:href="#linearGradient8106"
       id="linearGradient8108"
       x1="468.62891"
       y1="117.33301"
       x2="657.27148"
       y2="117.33301"
       gradientUnits="userSpaceOnUse" />
  </defs>
  <sodipodi:namedview
     id="namedview10"
     bordercolor="#666666"
     inkscape:pageshadow="2"
     guidetolerance="10"
     pagecolor="#ffffff"
     gridtolerance="10"
     inkscape:window-maximized="1"
     inkscape:zoom="0.50359649"
     objecttolerance="10"
     borderopacity="1"
     inkscape:current-layer="Layer_x0020_1"
     inkscape:cx="372.04724"
     inkscape:cy="243.92298"
     inkscape:window-y="-8"
     inkscape:window-x="-8"
     inkscape:window-width="1366"
     showgrid="false"
     inkscape:pageopacity="0"
     inkscape:window-height="705"
     inkscape:snap-global="false"
     fit-margin-top="0"
     fit-margin-left="0"
     fit-margin-right="0"
     fit-margin-bottom="0" />
  <ellipse
     id="circle4"
     style="fill:#235c96;stroke-width:2.65253544"
     cy="378.53571"
     cx="208.78125"
     rx="208.78125"
     ry="205.03125" />
  <ellipse
     ry="205.03125"
     rx="208.78125"
     cx="208.78125"
     cy="378.53571"
     style="fill:url(#linearGradient8065);fill-opacity:1;stroke-width:2.65253544"
     id="ellipse8057" />
  <path
     id="path6"
     style="fill:#94ba32;stroke-width:2.65253544"
     inkscape:connector-curvature="0"
     d="m 21.413462,378.53571 c 0,41.00626 13.383414,78.33245 36.402886,108.82428 l -8.565385,-58.35504 z m 40.150241,-114.08149 24.625481,-5.78293 c 20.878126,-29.96611 50.321646,-45.73774 77.088466,-50.46923 l -42.29159,28.91466 41.75625,-9.9887 29.97885,-16.29736 -8.56539,-14.72019 c -49.25096,6.30865 -93.148556,31.54327 -122.592067,68.34375 z m 27.302164,113.55577 17.666113,34.6976 52.46298,4.73149 28.37283,105.14423 h 34.79688 l 39.6149,-47.3149 -2.14134,-29.44039 c 17.13077,-13.14303 30.51418,-29.44038 35.86754,-50.46923 l -26.76682,6.30866 -34.79688,-53.62356 8.03005,-5.25722 34.26154,47.31491 33.7262,-28.91467 c -17.6661,-2.10288 -29.4435,-10.51442 -34.26154,-25.23461 l 61.02837,9.46298 21.9488,44.16058 9.63605,-58.88078 27.30218,31.54328 c -6.95938,-77.80674 -63.70506,-141.94472 -138.65218,-161.3964 0,17.87452 -10.17139,32.59471 -24.62548,41.00625 l -19.27211,-11.04014 -36.93822,21.02884 12.84807,12.09159 19.80746,-23.13173 -3.74736,28.38894 c -24.09015,0 -35.86755,3.68005 -50.85698,11.56587 l -3.21201,14.72019 -16.59543,-3.68004 -6.95938,18.40023 14.45408,4.20577 c 8.03006,-9.9887 14.45409,-16.29736 29.97885,-19.9774 l 16.0601,17.34879 -9.63606,3.15433 5.8887,4.7315 8.56539,-9.98871 -12.31275,-16.82308 c 12.31275,0 19.27212,7.3601 23.55482,25.76034 l 21.94879,-31.54327 26.76683,11.04014 -2.67668,6.83438 -31.58486,2.62861 v 11.56587 l 24.09015,1.57715 -7.49471,18.92597 c -43.8976,0 -56.74568,-1.05144 -65.8464,-20.50312 l -36.40288,-2.1029 c -26.76683,15.77165 -40.150246,36.27477 -43.897603,60.98366 z m 51.927643,-108.82428 21.41347,5.25721 v -21.02884 z m 118.84472,20.50312 10.70673,-5.78292 14.45408,29.44038 -9.63605,2.10288 z m 5.8887,209.76276 9.63606,3.68004 16.0601,-36.27476 -20.3428,12.61731 z" />
  <metadata
     id="metadata8">
    <rdf:RDF>
      <cc:Work>
        <dc:format>image/svg+xml</dc:format>
        <dc:type
           rdf:resource="http://purl.org/dc/dcmitype/StillImage" />
        <cc:license
           rdf:resource="http://creativecommons.org/publicdomain/zero/1.0/" />
        <dc:publisher>
          <cc:Agent
             rdf:about="http://openclipart.org/">
            <dc:title>Openclipart</dc:title>
          </cc:Agent>
        </dc:publisher>
        <dc:title></dc:title>
      </cc:Work>
      <cc:License
         rdf:about="http://creativecommons.org/publicdomain/zero/1.0/">
        <cc:permits
           rdf:resource="http://creativecommons.org/ns#Reproduction" />
        <cc:permits
           rdf:resource="http://creativecommons.org/ns#Distribution" />
        <cc:permits
           rdf:resource="http://creativecommons.org/ns#DerivativeWorks" />
      </cc:License>
    </rdf:RDF>
  </metadata>
  <path
     d="m 21.413462,378.53571 c 0,41.00626 13.383414,78.33245 36.402886,108.82428 l -8.565385,-58.35504 z m 40.150241,-114.08149 24.625481,-5.78293 c 20.878126,-29.96611 50.321646,-45.73774 77.088466,-50.46923 l -42.29159,28.91466 41.75625,-9.9887 29.97885,-16.29736 -8.56539,-14.72019 c -49.25096,6.30865 -93.148556,31.54327 -122.592067,68.34375 z m 27.302164,113.55577 17.666113,34.6976 52.46298,4.73149 28.37283,105.14423 h 34.79688 l 39.6149,-47.3149 -2.14134,-29.44039 c 17.13077,-13.14303 30.51418,-29.44038 35.86754,-50.46923 l -26.76682,6.30866 -34.79688,-53.62356 8.03005,-5.25722 34.26154,47.31491 33.7262,-28.91467 c -17.6661,-2.10288 -29.4435,-10.51442 -34.26154,-25.23461 l 61.02837,9.46298 21.9488,44.16058 9.63605,-58.88078 27.30218,31.54328 c -6.95938,-77.80674 -63.70506,-141.94472 -138.65218,-161.3964 0,17.87452 -10.17139,32.59471 -24.62548,41.00625 l -19.27211,-11.04014 -36.93822,21.02884 12.84807,12.09159 19.80746,-23.13173 -3.74736,28.38894 c -24.09015,0 -35.86755,3.68005 -50.85698,11.56587 l -3.21201,14.72019 -16.59543,-3.68004 -6.95938,18.40023 14.45408,4.20577 c 8.03006,-9.9887 14.45409,-16.29736 29.97885,-19.9774 l 16.0601,17.34879 -9.63606,3.15433 5.8887,4.7315 8.56539,-9.98871 -12.31275,-16.82308 c 12.31275,0 19.27212,7.3601 23.55482,25.76034 l 21.94879,-31.54327 26.76683,11.04014 -2.67668,6.83438 -31.58486,2.62861 v 11.56587 l 24.09015,1.57715 -7.49471,18.92597 c -43.8976,0 -56.74568,-1.05144 -65.8464,-20.50312 l -36.40288,-2.1029 c -26.76683,15.77165 -40.150246,36.27477 -43.897603,60.98366 z m 51.927643,-108.82428 21.41347,5.25721 v -21.02884 z m 118.84472,20.50312 10.70673,-5.78292 14.45408,29.44038 -9.63605,2.10288 z m 5.8887,209.76276 9.63606,3.68004 16.0601,-36.27476 -20.3428,12.61731 z"
     inkscape:connector-curvature="0"
     style="fill:url(#linearGradient8075);fill-opacity:1;stroke-width:2.65253544"
     id="path8067" />
  <g
     style="clip-rule:evenodd;fill-rule:evenodd;image-rendering:optimizeQuality;shape-rendering:geometricPrecision;text-rendering:geometricPrecision"
     id="g8093"
     transform="matrix(0.15624532,0,0,0.11004938,426.75125,142.84569)">
    <g
       id="Layer_x0020_1">
  
 <g
   id="g8116"
   transform="translate(-667.22085,84.580648)">
  <path
     inkscape:connector-curvature="0"
     id="path8110"
     d="M 545.24116,21.439626 342.69195,224.43318 V 2998.6785 l -297.866455,321.4064 59.573325,405.9871 190.63452,236.8258 297.86646,101.4968 262.12247,-50.7484 226.37853,-169.1613 83.4026,-355.2387 L 962.2542,3083.2591 843.10762,2914.0978 855.02227,309.01383 807.36364,122.93641 Z"
     style="fill:#fbfbeb;fill-opacity:1;stroke:none;stroke-width:7.14947224px;stroke-linecap:butt;stroke-linejoin:miter;stroke-opacity:1" />
  <path
     sodipodi:nodetypes="cssscssscccccccccccccccccccccccccccsssccsssccc"
     style="fill:#000000"
     inkscape:connector-curvature="0"
     class="fil0"
     d="m 913,2981 c 182,105 304,302 304,527 0,336 -273,609 -609,609 -336,0 -609,-273 -609,-609 0,-225 122,-422 304,-527 V 304 C 303,137 440,0 607,0 774,0 911,137 911,304 v 556 h 209 v 28 11 39 H 911 v 492 h 209 v 28 11 39 H 911 v 492 h 209 v 28 11 39 H 911 v 492 h 209 v 28 11 39 H 911 v 336 z m -110,63 V 304 C 803,197 715,109 608,109 501,109 413,197 413,304 v 2740 l -55,32 c -154,89 -250,254 -250,433 0,276 224,499 499,499 276,0 499,-224 499,-499 0,-179 -95,-343 -250,-433 l -55,-32 z"
     id="path8081" />
  <path
     id="path8095"
     transform="matrix(6.0001799,0,0,8.5189034,-2731.2898,278.59098)"
     d="m 563.94336,-195 -12.8457,82.04883 h -6.07422 l -40.65235,-54.60352 17.87305,95.248049 -53.61523,-43.587889 68.23632,106.4531238 V 330.47461 c -30.16576,5.98669 -52.16406,25.47261 -52.16406,48.59766 0,27.93786 32.1646,50.59375 71.83008,50.59375 39.66548,0 71.83203,-22.65589 71.83203,-50.59375 0,-23.12505 -22.00025,-42.61097 -52.16601,-48.59766 V -13.650391 l 81.07421,-123.232419 -53.61328,35.51758 17.8711,-71.03321 -45.67188,50.04688 z"
     style="fill:#8e0b0b;fill-opacity:1;stroke-width:0.13987046"
     inkscape:connector-curvature="0" />
  <path
     style="fill:url(#linearGradient8108);fill-opacity:1;stroke-width:0.13987046"
     d="m 563.94336,-195 -12.8457,82.04883 h -6.07422 l -40.65235,-54.60352 17.87305,95.248049 -53.61523,-43.587889 68.23632,106.4531238 V 330.47461 c -30.16576,5.98669 -52.16406,25.47261 -52.16406,48.59766 0,27.93786 32.1646,50.59375 71.83008,50.59375 39.66548,0 71.83203,-22.65589 71.83203,-50.59375 0,-23.12505 -22.00025,-42.61097 -52.16601,-48.59766 V -13.650391 l 81.07421,-123.232419 -53.61328,35.51758 17.8711,-71.03321 -45.67188,50.04688 z"
     transform="matrix(6.0001799,0,0,8.5189034,-2731.2898,278.59098)"
     id="path8100"
     inkscape:connector-curvature="0" />
</g>
</g>
  </g>
</svg>
